<svg xmlns="http://www.w3.org/2000/svg" width="24" height="24" viewBox="0 0 24 24" fill="none">
  <path d="M7.85399 10.854L11.646 14.646C11.6924 14.6926 11.7476 14.7295 11.8084 14.7547C11.8691 14.7799 11.9342 14.7929 12 14.7929C12.0658 14.7929 12.1309 14.7799 12.1916 14.7547C12.2524 14.7295 12.3075 14.6926 12.354 14.646L16.147 10.854C16.2171 10.7841 16.2649 10.6949 16.2842 10.5978C16.3036 10.5007 16.2937 10.4 16.2558 10.3085C16.2179 10.2171 16.1536 10.1389 16.0712 10.084C15.9889 10.0291 15.892 9.99982 15.793 10H8.20699C8.10805 10 8.01135 10.0294 7.92911 10.0844C7.84687 10.1394 7.7828 10.2176 7.74501 10.309C7.70722 10.4004 7.6974 10.501 7.7168 10.598C7.7362 10.6951 7.78394 10.7841 7.85399 10.854Z" fill="black"/>
  <path d="M2 3.75C2 2.784 2.784 2 3.75 2H20.25C21.216 2 22 2.784 22 3.75V20.25C22 20.7141 21.8156 21.1592 21.4874 21.4874C21.1592 21.8156 20.7141 22 20.25 22H3.75C3.28587 22 2.84075 21.8156 2.51256 21.4874C2.18437 21.1592 2 20.7141 2 20.25V3.75ZM3.75 3.5C3.6837 3.5 3.62011 3.52634 3.57322 3.57322C3.52634 3.62011 3.5 3.6837 3.5 3.75V20.25C3.5 20.388 3.612 20.5 3.75 20.5H20.25C20.3163 20.5 20.3799 20.4737 20.4268 20.4268C20.4737 20.3799 20.5 20.3163 20.5 20.25V3.75C20.5 3.6837 20.4737 3.62011 20.4268 3.57322C20.3799 3.52634 20.3163 3.5 20.25 3.5H3.75Z" fill="black"/>
</svg>